<svg width="600" height="600" viewBox="0 0 600 600" fill="none" xmlns="http://www.w3.org/2000/svg">
<path d="M0 124.8C0 55.8749 55.8749 0 124.8 0H475.2C544.125 0 600 55.8749 600 124.8V475.2C600 544.125 544.125 600 475.2 600H124.8C55.8749 600 0 544.125 0 475.2V124.8Z" fill="#836EF9"/>
<path fill-rule="evenodd" clip-rule="evenodd" d="M285.88 138.233C276.265 130.606 252.544 120.884 240.311 119.556C234.398 118.914 227.543 118.131 225.079 117.816C215.744 116.62 194.978 120.532 181.173 126.086C123.243 149.397 99.3208 215.849 128.381 272.73C133.27 282.302 140.803 290.769 170.631 320.22C252.854 401.402 310.571 457.479 316.474 461.918C332.248 473.778 359.148 482.394 380.424 482.4C418.195 482.409 457.527 459.08 474.018 426.885C488.211 399.18 489.645 373.376 479.061 336.173C474.977 321.818 472.383 308.84 472.383 302.764V292.827L462.079 302.606C447.596 316.351 435.635 323.955 418.338 330.41C404.299 335.648 401.916 335.985 379.196 335.956C361.286 335.933 352.968 335.166 347.161 333.001C342.85 331.392 339.065 330.076 338.751 330.076C338.439 330.076 348.726 340.467 361.611 353.167C375.284 366.643 384.526 377.089 383.804 378.256C380.797 383.123 374.522 378.964 352.878 357.751C340.247 345.375 309.044 314.933 283.534 290.101C258.026 265.27 232.371 240.271 226.521 234.547C220.672 228.823 216.204 223.178 216.592 222.002C218.136 217.309 224.464 218.924 230.733 225.612C243.422 239.147 309.603 302.14 316.094 306.862C330.07 317.028 344.918 323.254 362.202 326.195C377.827 328.852 380.562 328.852 396.142 326.202C411.002 323.675 435.225 314.774 438.286 310.718C438.806 310.03 443.133 306.33 447.904 302.495C460.35 292.491 463.792 288.377 471.797 273.94C495.069 231.975 489.116 184.523 456.398 151.196C440.393 134.894 438.051 133.254 420.473 126.054C407.183 120.611 402.717 119.688 386.364 119.009C359.794 117.905 348.724 120.308 324.402 132.466C321.37 133.98 316.236 137.387 312.992 140.035L307.093 144.849L344.936 182.622C365.75 203.397 382.78 221.601 382.78 223.074C382.78 224.547 381.472 226.255 379.872 226.87C377.759 227.68 365.401 216.422 334.622 185.647C311.334 162.361 289.401 141.025 285.88 138.233ZM266.513 427.459C250.77 412.153 224.672 386.601 208.52 370.677C192.368 354.753 168.116 330.901 154.627 317.67L130.099 293.615V302.794C130.099 307.84 128.18 318.261 125.834 325.951C114.075 364.491 112.483 383.012 119.017 405.343C124.944 425.602 132.659 438.403 147.124 451.979C160.595 464.626 165.792 468.255 177.064 472.898C199.985 482.341 219.642 484.41 243.335 479.876C258.718 476.934 266.266 473.731 282.959 463.067L295.139 455.284L266.513 427.459Z" fill="white"/>
</svg>
